<?xml version="1.0" encoding="UTF-8"?>
<svg xmlns="http://www.w3.org/2000/svg" xmlns:xlink="http://www.w3.org/1999/xlink" viewBox="0 0 96 96" width="96px" height="96px">
<g id="surface250604384">
<path style=" stroke:none;fill-rule:nonzero;fill:rgb(100%,100%,100%);fill-opacity:1;" d="M 88 15.996094 C 84.878906 17.847656 78.621094 20.371094 74.941406 21.101562 C 74.832031 21.128906 74.742188 21.164062 74.640625 21.191406 C 71.386719 17.984375 66.933594 15.996094 62 15.996094 C 52.058594 15.996094 44 24.054688 44 33.996094 C 44 34.519531 43.957031 35.484375 44 35.996094 C 30.589844 35.996094 20.378906 28.972656 13.058594 19.996094 C 12.265625 21.996094 11.914062 25.15625 11.914062 28.125 C 11.914062 33.726562 16.296875 39.230469 23.117188 42.644531 C 21.859375 42.96875 20.476562 43.199219 19.035156 43.199219 C 16.710938 43.199219 14.253906 42.589844 12 40.730469 C 12 40.800781 12 40.863281 12 40.9375 C 12 48.769531 20.3125 54.101562 27.703125 55.585938 C 26.203125 56.46875 23.179688 56.554688 21.703125 56.554688 C 20.664062 56.554688 16.984375 56.078125 16 55.894531 C 18.054688 62.316406 25.472656 65.925781 32.539062 66.050781 C 27.011719 70.386719 23.175781 71.996094 11.855469 71.996094 L 8 71.996094 C 15.152344 76.578125 24.261719 80 33.386719 80 C 63.109375 80 80 57.347656 80 35.996094 C 80 35.652344 79.992188 34.933594 79.980469 34.207031 C 79.980469 34.136719 80 34.066406 80 33.996094 C 80 33.886719 79.96875 33.785156 79.96875 33.675781 C 79.957031 33.132812 79.945312 32.625 79.933594 32.359375 C 83.09375 30.078125 85.832031 27.234375 88 23.996094 C 85.101562 25.285156 81.988281 26.148438 78.71875 26.539062 C 82.054688 24.539062 86.796875 19.773438 88 15.996094 Z M 88 15.996094 "/>
</g>
</svg>
