<?xml version="1.0" encoding="UTF-8"?>
<svg xmlns="http://www.w3.org/2000/svg" xmlns:xlink="http://www.w3.org/1999/xlink" viewBox="0 0 96 96" width="96px" height="96px">
<g id="surface250625229">
<path style=" stroke:none;fill-rule:nonzero;fill:rgb(100%,100%,100%);fill-opacity:1;" d="M 22.71875 8 L 28.632812 29.375 L 28.632812 39.625 L 33.757812 39.625 L 33.757812 29.375 L 39.75 8 L 34.585938 8 L 32.4375 17.726562 C 31.832031 20.566406 31.449219 22.585938 31.273438 23.789062 L 31.117188 23.789062 C 30.863281 22.105469 30.480469 20.070312 29.953125 17.6875 L 27.882812 8 Z M 45.726562 16.070312 C 43.992188 16.070312 42.589844 16.410156 41.523438 17.101562 C 40.457031 17.789062 39.667969 18.890625 39.164062 20.398438 C 38.664062 21.90625 38.414062 23.902344 38.414062 26.390625 L 38.414062 29.75 C 38.414062 32.210938 38.628906 34.179688 39.070312 35.664062 C 39.511719 37.148438 40.253906 38.242188 41.296875 38.945312 C 42.339844 39.648438 43.777344 40 45.609375 40 C 47.394531 40 48.8125 39.652344 49.851562 38.960938 C 50.890625 38.269531 51.644531 37.183594 52.109375 35.6875 C 52.574219 34.191406 52.804688 32.214844 52.804688 29.75 L 52.804688 26.390625 C 52.804688 23.90625 52.570312 21.917969 52.09375 20.421875 C 51.617188 18.929688 50.859375 17.828125 49.828125 17.125 C 48.796875 16.421875 47.433594 16.070312 45.726562 16.070312 Z M 55.515625 16.523438 L 55.515625 33.78125 C 55.515625 35.917969 55.875 37.488281 56.601562 38.492188 C 57.328125 39.496094 58.460938 40 59.992188 40 C 62.199219 40 63.863281 38.933594 64.96875 36.796875 L 65.078125 36.796875 L 65.53125 39.625 L 69.601562 39.625 L 69.601562 16.523438 L 64.40625 16.523438 L 64.40625 34.875 C 64.207031 35.304688 63.898438 35.652344 63.484375 35.929688 C 63.070312 36.210938 62.640625 36.34375 62.1875 36.34375 C 61.660156 36.34375 61.28125 36.128906 61.054688 35.6875 C 60.828125 35.246094 60.710938 34.507812 60.710938 33.476562 L 60.710938 16.523438 Z M 45.609375 19.648438 C 46.335938 19.648438 46.851562 20.027344 47.140625 20.796875 C 47.429688 21.5625 47.570312 22.777344 47.570312 24.4375 L 47.570312 31.632812 C 47.570312 33.339844 47.429688 34.574219 47.140625 35.328125 C 46.851562 36.082031 46.339844 36.457031 45.617188 36.460938 C 44.890625 36.460938 44.386719 36.082031 44.109375 35.328125 C 43.828125 34.574219 43.695312 33.339844 43.695312 31.632812 L 43.695312 24.4375 C 43.695312 22.78125 43.835938 21.566406 44.125 20.796875 C 44.414062 20.03125 44.90625 19.648438 45.609375 19.648438 Z M 20 44 C 15.601562 44 12 47.601562 12 52 L 12 80 C 12 84.398438 15.601562 88 20 88 L 76 88 C 80.398438 88 84 84.398438 84 80 L 84 52 C 84 47.601562 80.398438 44 76 44 Z M 48.195312 52 L 52.421875 52 L 52.421875 62.273438 L 52.453125 62.273438 C 52.832031 61.53125 53.378906 60.933594 54.078125 60.476562 C 54.777344 60.019531 55.535156 59.796875 56.34375 59.796875 C 57.382812 59.796875 58.195312 60.074219 58.789062 60.625 C 59.382812 61.175781 59.8125 62.070312 60.078125 63.296875 C 60.34375 64.527344 60.46875 66.238281 60.46875 68.421875 L 60.46875 71.507812 L 60.476562 71.507812 C 60.476562 74.414062 60.121094 76.546875 59.421875 77.914062 C 58.722656 79.28125 57.632812 79.96875 56.148438 79.96875 C 55.320312 79.96875 54.570312 79.777344 53.890625 79.398438 C 53.210938 79.019531 52.699219 78.496094 52.359375 77.835938 L 52.265625 77.835938 L 51.820312 79.679688 L 48.195312 79.679688 Z M 21.945312 52.984375 L 34.953125 52.984375 L 34.953125 56.523438 L 30.59375 56.523438 L 30.59375 79.679688 L 26.304688 79.679688 L 26.304688 56.523438 L 21.945312 56.523438 Z M 68.390625 59.804688 C 69.894531 59.804688 71.050781 60.082031 71.859375 60.632812 C 72.664062 61.183594 73.230469 62.046875 73.5625 63.210938 C 73.890625 64.378906 74.054688 65.992188 74.054688 68.046875 L 74.054688 71.390625 L 66.710938 71.390625 L 66.710938 72.382812 C 66.710938 73.636719 66.746094 74.570312 66.820312 75.195312 C 66.894531 75.820312 67.050781 76.277344 67.28125 76.5625 C 67.511719 76.851562 67.871094 76.992188 68.359375 76.992188 C 69.015625 76.992188 69.46875 76.734375 69.710938 76.226562 C 69.953125 75.71875 70.089844 74.875 70.109375 73.6875 L 73.898438 73.90625 C 73.917969 74.074219 73.929688 74.3125 73.929688 74.609375 C 73.929688 76.414062 73.433594 77.761719 72.445312 78.648438 C 71.457031 79.539062 70.070312 79.984375 68.265625 79.984375 C 66.101562 79.984375 64.582031 79.300781 63.710938 77.945312 C 62.839844 76.589844 62.40625 74.492188 62.40625 71.648438 L 62.40625 68.242188 C 62.40625 65.3125 62.859375 63.175781 63.757812 61.828125 C 64.65625 60.480469 66.207031 59.804688 68.390625 59.804688 Z M 33.640625 60.179688 L 38.039062 60.179688 L 38.039062 74.5 C 38.039062 75.367188 38.136719 75.992188 38.328125 76.359375 C 38.519531 76.730469 38.832031 76.914062 39.28125 76.914062 C 39.660156 76.914062 40.035156 76.796875 40.382812 76.5625 C 40.734375 76.332031 40.984375 76.03125 41.15625 75.671875 L 41.15625 60.179688 L 45.554688 60.179688 L 45.554688 79.679688 L 42.109375 79.679688 L 41.734375 77.289062 L 41.632812 77.289062 C 40.695312 79.097656 39.296875 80 37.429688 80 C 36.132812 80 35.1875 79.574219 34.570312 78.726562 C 33.953125 77.878906 33.640625 76.550781 33.640625 74.75 Z M 68.296875 62.773438 C 67.828125 62.773438 67.480469 62.914062 67.257812 63.1875 C 67.035156 63.464844 66.882812 63.914062 66.8125 64.539062 C 66.738281 65.164062 66.703125 66.109375 66.703125 67.382812 L 66.703125 68.78125 L 69.914062 68.78125 L 69.914062 67.382812 C 69.914062 66.128906 69.875 65.1875 69.789062 64.539062 C 69.710938 63.890625 69.550781 63.4375 69.328125 63.171875 C 69.105469 62.90625 68.765625 62.773438 68.296875 62.773438 Z M 54.367188 62.914062 C 53.941406 62.914062 53.554688 63.082031 53.195312 63.421875 C 52.835938 63.761719 52.578125 64.199219 52.429688 64.726562 L 52.429688 75.796875 C 52.621094 76.136719 52.871094 76.390625 53.179688 76.5625 C 53.488281 76.730469 53.816406 76.820312 54.179688 76.820312 C 54.648438 76.820312 55.011719 76.652344 55.289062 76.3125 C 55.566406 75.972656 55.765625 75.402344 55.882812 74.59375 C 56 73.789062 56.054688 72.671875 56.054688 71.25 L 56.054688 68.742188 C 56.054688 67.214844 56.011719 66.039062 55.914062 65.210938 C 55.816406 64.382812 55.644531 63.785156 55.40625 63.4375 C 55.164062 63.089844 54.816406 62.914062 54.367188 62.914062 Z M 54.367188 62.914062 "/>
</g>
</svg>
